<svg width="22" height="22" viewBox="0 0 22 22" fill="none" xmlns="http://www.w3.org/2000/svg">
<path fill-rule="evenodd" clip-rule="evenodd" d="M5.40138 0.583984L11.3963 6.59208L10.6916 7.29841C10.0267 7.9649 9.36099 8.63162 8.69382 9.29736C9.86467 10.8908 11.1286 12.1398 12.7324 13.2984C13.3905 12.6354 14.0495 11.9733 14.7096 11.3121L15.4176 10.603L21.4121 16.612L18.8473 19.183C16.4642 21.5721 12.6938 21.894 9.91801 20.0024C6.83759 17.9033 4.11784 15.1914 2.01013 12.1167C0.110306 9.34528 0.423494 5.57415 2.80706 3.18471L5.40138 0.583984ZM5.40157 3.41571L4.22302 4.59718C2.5295 6.29488 2.29547 8.9957 3.65975 10.9859C5.6269 13.8555 8.16914 16.3904 11.0443 18.3497C13.038 19.7083 15.7384 19.4676 17.4314 17.7705L18.5871 16.612L15.4174 13.4347C14.798 14.0564 14.1794 14.6791 13.5614 15.3025L12.9805 15.8885L12.2949 15.4295C9.91904 13.8391 8.17378 12.1172 6.56313 9.7467L6.09716 9.0609L6.68479 8.47597C7.31436 7.84929 7.94274 7.22113 8.57094 6.59204L5.40157 3.41571Z" fill="#020020"/>
</svg>
